<mxfile host="app.diagrams.net" modified="2024-04-24T14:50:38.196Z" agent="Mozilla/5.0 (Windows NT 10.0; Win64; x64) AppleWebKit/537.36 (KHTML, like Gecko) Chrome/124.0.0.0 Safari/537.36" version="24.2.8" etag="fZca87bzL3kStBCtrv88" type="github">
  <diagram name="Page-1" id="2MLrVEugwRyewGr9bWa0">
    <mxGraphModel>
      <root>
        <mxCell id="0" />
        <mxCell id="1" parent="0" />
      </root>
    </mxGraphModel>
  </diagram>
</mxfile>
